REM DIRINDEX 1\5,1\2\6,1\2\7,1\3\8,1\3\9,1\4\10,1\4\11,1\4\12
REM DIRNAME folder01,folder02,folder03,folder04,folder05,folder06,folder07,folder08,folder09,folder10,folder11,folder12
TITLE ""
FILE "EJE_DB3000_5th_6C_46.mp3" MP3
  TRACK 01 AUDIO
    TITLE "0:"
    INDEX 01 00:00:00
  TRACK 02 AUDIO
    TITLE "10:cjc026_11931"
    INDEX 01 00:00:05
  TRACK 03 AUDIO
    TITLE "0:"
    INDEX 01 00:01:07
  TRACK 04 AUDIO
    TITLE "11:cjc026_11932"
    INDEX 01 00:01:34
  TRACK 05 AUDIO
    TITLE "0:"
    INDEX 01 00:02:32
  TRACK 06 AUDIO
    TITLE "12:cjc026_11933"
    INDEX 01 00:02:57
  TRACK 07 AUDIO
    TITLE "0:"
    INDEX 01 00:03:59
  TRACK 08 AUDIO
    TITLE "10:cjc026_11934"
    INDEX 01 00:04:11
  TRACK 09 AUDIO
    TITLE "0:"
    INDEX 01 00:05:09
  TRACK 10 AUDIO
    TITLE "11:cjc026_11935"
    INDEX 01 00:05:36
  TRACK 11 AUDIO
    TITLE "0:"
    INDEX 01 00:06:30
  TRACK 12 AUDIO
    TITLE "12:cjc026_11936"
    INDEX 01 00:06:59
  TRACK 13 AUDIO
    TITLE "0:"
    INDEX 01 00:07:56
  TRACK 14 AUDIO
    TITLE "10:cjc026_11937"
    INDEX 01 00:08:07
  TRACK 15 AUDIO
    TITLE "0:"
    INDEX 01 00:09:16
  TRACK 16 AUDIO
    TITLE "11:cjc026_11938"
    INDEX 01 00:09:42
  TRACK 17 AUDIO
    TITLE "0:"
    INDEX 01 00:10:33
  TRACK 18 AUDIO
    TITLE "12:cjc026_11939"
    INDEX 01 00:10:59
  TRACK 19 AUDIO
    TITLE "0:"
    INDEX 01 00:11:66
  TRACK 20 AUDIO
    TITLE "10:cjc026_11940"
    INDEX 01 00:12:16
  TRACK 21 AUDIO
    TITLE "0:"
    INDEX 01 00:13:16
  TRACK 22 AUDIO
    TITLE "11:cjc026_11941"
    INDEX 01 00:13:43
  TRACK 23 AUDIO
    TITLE "0:"
    INDEX 01 00:14:56
  TRACK 24 AUDIO
    TITLE "12:cjc026_11942"
    INDEX 01 00:15:07
  TRACK 25 AUDIO
    TITLE "0:"
    INDEX 01 00:16:06
  TRACK 26 AUDIO
    TITLE "10:cjc026_11943"
    INDEX 01 00:16:32
  TRACK 27 AUDIO
    TITLE "0:"
    INDEX 01 00:17:27
  TRACK 28 AUDIO
    TITLE "11:cjc026_11944"
    INDEX 01 00:17:53
  TRACK 29 AUDIO
    TITLE "0:"
    INDEX 01 00:18:72
  TRACK 30 AUDIO
    TITLE "12:cjc026_11945"
    INDEX 01 00:19:20
  TRACK 31 AUDIO
    TITLE "0:"
    INDEX 01 00:20:16
  TRACK 32 AUDIO
    TITLE "10:cjc026_11946"
    INDEX 01 00:20:41
  TRACK 33 AUDIO
    TITLE "0:"
    INDEX 01 00:21:41
  TRACK 34 AUDIO
    TITLE "11:cjc026_11947"
    INDEX 01 00:21:66
  TRACK 35 AUDIO
    TITLE "0:"
    INDEX 01 00:23:04
  TRACK 36 AUDIO
    TITLE "12:cjc026_11948"
    INDEX 01 00:23:30
  TRACK 37 AUDIO
    TITLE "0:"
    INDEX 01 00:24:29
  TRACK 38 AUDIO
    TITLE "10:cjc026_11949"
    INDEX 01 00:24:55
  TRACK 39 AUDIO
    TITLE "0:"
    INDEX 01 00:25:56
  TRACK 40 AUDIO
    TITLE "11:cjc026_11950"
    INDEX 01 00:26:07
  TRACK 41 AUDIO
    TITLE "0:"
    INDEX 01 00:27:24
  TRACK 42 AUDIO
    TITLE "12:cjc026_11951"
    INDEX 01 00:27:49
  TRACK 43 AUDIO
    TITLE "0:"
    INDEX 01 00:28:51
  TRACK 44 AUDIO
    TITLE "10:cjc026_11952"
    INDEX 01 00:29:01
  TRACK 45 AUDIO
    TITLE "0:"
    INDEX 01 00:30:01
  TRACK 46 AUDIO
    TITLE "11:cjc026_11953"
    INDEX 01 00:30:24
  TRACK 47 AUDIO
    TITLE "0:"
    INDEX 01 00:31:35
  TRACK 48 AUDIO
    TITLE "12:cjc026_11954"
    INDEX 01 00:31:61
  TRACK 49 AUDIO
    TITLE "0:"
    INDEX 01 00:32:60
  TRACK 50 AUDIO
    TITLE "10:cjc026_11955"
    INDEX 01 00:33:09
  TRACK 51 AUDIO
    TITLE "0:"
    INDEX 01 00:34:14
  TRACK 52 AUDIO
    TITLE "11:cjc026_11956"
    INDEX 01 00:34:40
  TRACK 53 AUDIO
    TITLE "0:"
    INDEX 01 00:35:41
  TRACK 54 AUDIO
    TITLE "12:cjc026_11957"
    INDEX 01 00:35:66
  TRACK 55 AUDIO
    TITLE "0:"
    INDEX 01 00:36:72
  TRACK 56 AUDIO
    TITLE "10:cjc026_11958"
    INDEX 01 00:37:20
  TRACK 57 AUDIO
    TITLE "0:"
    INDEX 01 00:38:43
  TRACK 58 AUDIO
    TITLE "11:cjc026_11959"
    INDEX 01 00:38:71
  TRACK 59 AUDIO
    TITLE "0:"
    INDEX 01 00:40:21
  TRACK 60 AUDIO
    TITLE "12:cjc026_11960"
    INDEX 01 00:40:46
  TRACK 61 AUDIO
    TITLE "0:"
    INDEX 01 00:41:69
  TRACK 62 AUDIO
    TITLE "10:cjc026_11961"
    INDEX 01 00:42:21
  TRACK 63 AUDIO
    TITLE "0:"
    INDEX 01 00:43:25
  TRACK 64 AUDIO
    TITLE "11:cjc026_11962"
    INDEX 01 00:43:52
  TRACK 65 AUDIO
    TITLE "0:"
    INDEX 01 00:44:56
  TRACK 66 AUDIO
    TITLE "12:cjc026_11963"
    INDEX 01 00:45:06
  TRACK 67 AUDIO
    TITLE "0:"
    INDEX 01 00:46:09
  TRACK 68 AUDIO
    TITLE "10:cjc026_11964"
    INDEX 01 00:46:37
  TRACK 69 AUDIO
    TITLE "0:"
    INDEX 01 00:47:40
  TRACK 70 AUDIO
    TITLE "11:cjc026_11965"
    INDEX 01 00:47:66
  TRACK 71 AUDIO
    TITLE "0:"
    INDEX 01 00:49:04
  TRACK 72 AUDIO
    TITLE "12:cjc026_11966"
    INDEX 01 00:49:29
  TRACK 73 AUDIO
    TITLE "0:"
    INDEX 01 00:50:33
  TRACK 74 AUDIO
    TITLE "10:cjc026_11967"
    INDEX 01 00:50:58
  TRACK 75 AUDIO
    TITLE "0:"
    INDEX 01 00:51:60
  TRACK 76 AUDIO
    TITLE "11:cjc026_11968"
    INDEX 01 00:52:12
  TRACK 77 AUDIO
    TITLE "0:"
    INDEX 01 00:53:17
  TRACK 78 AUDIO
    TITLE "12:cjc026_11969"
    INDEX 01 00:53:43
  TRACK 79 AUDIO
    TITLE "0:"
    INDEX 01 00:54:46
  TRACK 80 AUDIO
    TITLE "10:cjc026_11970"
    INDEX 01 00:54:74
  TRACK 81 AUDIO
    TITLE "0:"
    INDEX 01 00:55:73
  TRACK 82 AUDIO
    TITLE "11:cjc026_11971"
    INDEX 01 00:56:22
  TRACK 83 AUDIO
    TITLE "0:"
    INDEX 01 00:57:11
  TRACK 84 AUDIO
    TITLE "12:cjc026_11972"
    INDEX 01 00:57:35
  TRACK 85 AUDIO
    TITLE "0:"
    INDEX 01 00:58:38
